Coordinates
version=1
nRows=12
nColumns=24
inDegrees=yes

Units are S.I. units (second, meters, Newtons, ...)
Angles are in degrees.

endheader
time	pelvis_tilt	pelvis_list	pelvis_rotation	pelvis_tx	pelvis_ty	pelvis_tz	hip_flexion_r	hip_adduction_r	hip_rotation_r	knee_angle_r	ankle_angle_r	subtalar_angle_r	mtp_angle_r	hip_flexion_l	hip_adduction_l	hip_rotation_l	knee_angle_l	ankle_angle_l	subtalar_angle_l	mtp_angle_l	lumbar_extension	lumbar_bending	lumbar_rotation
      4.11500000	     -9.69326036	     -2.29607286	     -0.74802290	     -1.37650852	     -0.00510876	     -0.73809346	      3.26508991	      6.89744030	     -3.05157438	     -5.82033413	      4.92119240	     -7.65533973	      5.62386855	     35.46627332	     -6.19647394	    -12.47395673	    -52.15336242	     -2.28438239	    -14.28248482	      1.40721187	      8.81226577	      5.03393042	      0.64942137
      4.12000000	     -9.74278534	     -2.22366933	     -0.85944766	     -1.37152659	     -0.00552065	     -0.73808444	      2.91689396	      6.79964792	     -3.30655987	     -5.66875030	      5.12456091	     -7.13853086	      6.42605231	     35.69802625	     -6.06178528	    -12.71945982	    -50.61591078	     -1.60749988	    -14.08631103	     -0.29298603	      8.79137857	      4.96297014	      0.88738630
      4.12500000	     -9.97249508	     -2.19897402	     -1.03340040	     -1.36657422	     -0.00615261	     -0.73785243	      2.76155445	      6.79364830	     -3.22565735	     -5.53411918	      5.24803036	     -7.03753318	      6.54426074	     36.09039985	     -6.04275700	    -12.98361661	    -48.96595331	     -1.30739716	    -13.94419528	     -0.44473539	      8.95872059	      4.93590370	      1.14732715
      4.13000000	    -10.17043476	     -2.17326743	     -1.11174939	     -1.36159021	     -0.00678277	     -0.73774468	      2.55912206	      6.77822625	     -3.23474789	     -5.37967512	      5.37791974	     -6.94802581	      6.61040891	     36.42340137	     -5.94851487	    -13.14756900	    -47.23054780	     -1.04122492	    -13.72883965	     -0.53085862	      9.10236302	      4.88300694	      1.28120642
      4.13500000	    -10.35020528	     -2.12476952	     -1.25697600	     -1.35660145	     -0.00739806	     -0.73758334	      2.35736812	      6.73621062	     -3.22796699	     -5.26633722	      5.55556756	     -6.75241971	      6.73274684	     36.67508083	     -5.87960301	    -13.42656826	    -45.41111572	     -0.74940085	    -13.40959667	     -0.65348203	      9.21867144	      4.82057442	      1.51072437
      4.14000000	    -10.51708740	     -2.09281370	     -1.39144454	     -1.35161645	     -0.00802089	     -0.73744808	      2.14033409	      6.71026586	     -3.26361899	     -5.14637472	      5.71701889	     -6.54026156	      6.86827474	     36.88060531	     -5.81637978	    -13.70022003	    -43.52897503	     -0.47204966	    -12.99450332	     -0.76265018	      9.31769008	      4.77538132	      1.71727784
      4.14500000	    -10.59344267	     -2.06778483	     -1.58996775	     -1.34664941	     -0.00854547	     -0.73727693	      1.84204929	      6.68252815	     -3.35841488	     -5.05135326	      5.89058366	     -6.12907458	      7.17222882	     36.93257061	     -5.80900898	    -14.09508367	    -41.58739416	     -0.13652991	    -12.41791608	     -0.93089850	      9.30251802	      4.75601157	      2.02889855
      4.15000000	    -10.72931815	     -2.04370643	     -1.70396734	     -1.34161778	     -0.00917722	     -0.73719408	      1.59659943	      6.65570479	     -3.46634608	     -4.94224899	      6.04717203	     -5.86483751	      7.45113336	     37.02415448	     -5.73346927	    -14.39672002	    -39.58266108	      0.12912203	    -11.77075695	     -0.97282061	      9.37160446	      4.70938363	      2.20259777
      4.15500000	    -10.86393735	     -2.03494166	     -1.82280347	     -1.33656269	     -0.00982961	     -0.73713723	      1.34847641	      6.64061995	     -3.54302589	     -4.83787764	      6.19102305	     -5.59579031	      7.68963886	     37.07638085	     -5.67760332	    -14.74723261	    -37.53259590	      0.36827439	    -11.01670394	     -0.87235886	      9.43868096	      4.68519421	      2.37579786
      4.16000000	    -10.87937714	     -1.98926844	     -1.90779762	     -1.33146241	     -0.01034541	     -0.73716037	      0.97757048	      6.56760876	     -3.77643650	     -4.73320631	      6.32987925	     -5.19900592	      8.29477038	     36.93761031	     -5.54363620	    -15.08897758	    -35.38215533	      0.44459253	    -10.25556549	     -0.37800420	      9.37669511	      4.61405022	      2.53729896
      4.16500000	    -11.05112065	     -2.01969057	     -2.06236324	     -1.32638158	     -0.01107659	     -0.73704526	      0.78803221	      6.59692856	     -3.80161360	     -4.67346525	      6.44416695	     -4.95108796	      8.44058364	     36.98139913	     -5.55804873	    -15.53177546	    -33.31865759	      0.63864854	     -9.23087017	     -0.05530890	      9.47763343	      4.63135724	      2.72721424
      4.17000000	    -11.00571620	     -1.97412072	     -2.15887349	     -1.32120485	     -0.01156145	     -0.73704359	      0.35978282	      6.51881317	     -4.01371767	     -4.60117434	      6.57738600	     -4.55198714	      8.91999115	     36.70826205	     -5.43104588	    -15.96351758	    -31.10346214	      0.45708439	     -8.39264026	      1.30652720	      9.35013073	      4.55233983	      2.89923153
